<svg xmlns="http://www.w3.org/2000/svg" xmlns:xlink="http://www.w3.org/1999/xlink" version="1.1">
  <g
     class="root banny"
     style="pointer-events:none;">
    <rect
       class="ear_r"
       rx="7"
       ry="8"
       width="26"
       height="84"
       style="fill:#ffffff;stroke:#000000;stroke-width:5"
       x="4"
       y="-124" />
    <rect
       class="ear_l"
       rx="7"
       ry="8"
       width="21.269281"
       height="68"
       style="fill:#ffffff;stroke:#000000;stroke-width:5"
       x="-38"
       y="-108" />
    <rect
       class="leg_r"
       rx="4"
       ry="4"
       width="18"
       height="30"
       style="fill:#ffffff;stroke:#000000;stroke-width:4;transform-origin:16px 45px"
       x="7"
       y="36.5" />
    <rect
       class="leg_l"
       rx="4"
       ry="4"
       width="18"
       height="30"
       style="fill:#ffffff;stroke:#000000;stroke-width:4;transform-origin:-20px 45px"
       x="-29"
       y="36.5" />
    <rect
       class="hand_r"
       rx="4"
       ry="4"
       width="18"
       height="30"
       style="fill:#ffffff;stroke:#000000;stroke-width:4;transform-origin:37px 7px"
       x="28.5"
       y="-2" />
    <rect
       class="body"
       rx="15"
       ry="15"
       width="80"
       height="100"
       style="fill:#ffffff;stroke:#000000;stroke-width:5.5"
       x="-41"
       y="-53.5" />
    <path
       style="stroke:#ffffff;stroke-width:8"
       d="m -23,-58 2,10" />
    <path
       style="stroke:#ffffff;stroke-width:8"
       d="m 23.5,-57 -1,9" />
    <rect
       class="hand_r"
       rx="5"
       ry="5"
       width="20"
       height="35"
       style="fill:#ffffff;stroke:#000000;stroke-width:4;transform-origin:-40px 6px"
       x="-50"
       y="-4"
       id="rect4-1" />
    <g
       class="face"
       id="g17"
       transform="translate(0,-2)">
      <image
         xlink:href="img/parts/swagglasses.png"
         width="57"
         height="36"
         x="-21.5"
         y="-33" />
      <ellipse
         class="nose"
         cx="8.1826782"
         cy="-3.3474579"
         rx="3.5"
         ry="2.5"
         style="fill:#ff0000;stroke-width:0.5" />
      <g class="mouth">
        <rect
           class="tooth1"
           width="5"
           height="10"
           style="fill:#ffffff;stroke:#000000;stroke-width:1"
           x="9"
           y="7" />
        <rect
           class="tooth2"
           width="5"
           height="7"
           style="fill:#ffffff;stroke:#000000;stroke-width:1"
           x="4"
           y="7" />
        <path
           style="fill:none;stroke:#000000;stroke-width:3.5"
           d="m -10,9.5 q 0,0 12,-2.5 14,-2.5 18,4" />
      </g>
    </g>
  </g>
</svg>
